<svg width="21" height="25" viewBox="0 0 21 25" fill="none" xmlns="http://www.w3.org/2000/svg">
<path d="M17.0035 13.2848C16.972 10.118 19.5859 8.59915 19.7028 8.52242C18.2337 6.37448 15.945 6.07975 15.1305 6.04621C13.1843 5.84854 11.331 7.1926 10.3437 7.1926C9.35841 7.1926 7.83295 6.07518 6.21907 6.10363C4.09603 6.13514 2.13915 7.33843 1.04664 9.23891C-1.15822 13.0637 0.482592 18.7321 2.63104 21.8364C3.68138 23.3537 4.93397 25.0611 6.57732 24.9986C8.16121 24.9361 8.7588 23.9742 10.6735 23.9742C12.5882 23.9742 13.1258 24.9986 14.8012 24.9666C16.5045 24.9356 17.5843 23.4203 18.626 21.8969C19.8318 20.1341 20.3283 18.4272 20.3578 18.3409C20.3207 18.3236 17.0375 17.0659 17.0035 13.2848Z" fill="black"/>
<path d="M13.8555 3.9915C14.727 2.93354 15.3174 1.46347 15.1568 0C13.8992 0.0508148 12.3768 0.835903 11.4738 1.89285C10.6648 2.83089 9.95748 4.32434 10.147 5.76138C11.55 5.87012 12.981 5.04743 13.8555 3.9915Z" fill="black"/>
</svg>
