<svg width="25" height="25" viewBox="0 0 25 25" fill="none" xmlns="http://www.w3.org/2000/svg">
<g clip-path="url(#clip0_9_804)">
<path d="M24.2025 12.5933C24.2025 6.06106 18.9071 0.765625 12.3748 0.765625C5.84255 0.765625 0.547119 6.06106 0.547119 12.5933C0.547119 18.4968 4.87231 23.39 10.5267 24.2773V16.0123H7.52361V12.5933H10.5267V9.98753C10.5267 7.02321 12.2926 5.38582 14.9942 5.38582C16.2879 5.38582 17.6418 5.61683 17.6418 5.61683V8.52755H16.1504C14.6812 8.52755 14.2229 9.43934 14.2229 10.3756V12.5933H17.5032L16.9788 16.0123H14.2229V24.2773C19.8773 23.39 24.2025 18.4968 24.2025 12.5933Z" fill="white"/>
</g>
<defs>
<clipPath id="clip0_9_804">
<rect width="23.6554" height="23.6554" fill="white" transform="translate(0.547119 0.765625)"/>
</clipPath>
</defs>
</svg>
