<svg width="85" height="87" viewBox="0 0 85 87" fill="none" xmlns="http://www.w3.org/2000/svg">
<path d="M42.3575 8.59427C38.292 8.59378 34.2662 9.39418 30.51 10.9498C26.7539 12.5054 23.3409 14.7856 20.4662 17.6604C17.5914 20.5352 15.3111 23.9481 13.7555 27.7043C12.1999 31.4604 11.3995 35.4862 11.4 39.5518C11.4 39.6451 11.4 39.7347 11.4 39.8281H21.8188C21.8188 39.7646 21.8188 39.7049 21.8188 39.6451C21.8188 36.9479 22.35 34.2772 23.3822 31.7853C24.4144 29.2934 25.9272 27.0292 27.8344 25.122C29.7416 23.2148 32.0058 21.702 34.4977 20.6698C36.9896 19.6376 39.6603 19.1064 42.3575 19.1064C45.0547 19.1064 47.7255 19.6376 50.2174 20.6698C52.7092 21.702 54.9734 23.2148 56.8806 25.122C58.7878 27.0292 60.3007 29.2934 61.3328 31.7853C62.365 34.2772 62.8963 36.9479 62.8963 39.6451C62.8963 39.7049 62.8963 39.7646 62.8963 39.8281H73.3038C73.3038 39.7347 73.3038 39.6451 73.3038 39.5518C73.3048 31.343 70.0451 23.4699 64.2416 17.6644C58.4382 11.8588 50.5663 8.59625 42.3575 8.59427Z" fill="#54D4F1"/>
<g style="mix-blend-mode:multiply">
<path d="M62.8964 39.6451C62.8964 39.7049 62.8964 39.7646 62.8964 39.8281H73.3039C73.3039 39.7347 73.3039 39.6451 73.3039 39.5518C73.3125 31.5029 70.1754 23.7693 64.5619 18.001L53.5905 22.4486C56.4486 24.3157 58.7963 26.8659 60.4211 29.8684C62.0459 32.8709 62.8967 36.2311 62.8964 39.6451Z" fill="#54D4F1"/>
</g>
<g style="mix-blend-mode:multiply">
<path d="M21.8188 39.8281C21.8188 39.7646 21.8188 39.7049 21.8188 39.6451C21.8186 38.1249 21.9877 36.6094 22.3229 35.1266L11.4 39.5518L17.2368 39.8281H21.8188Z" fill="#54D4F1"/>
</g>
<path d="M54.3075 15.6409H30.4078L27.9208 39.8281H56.8057L54.3075 15.6409ZM33.4924 20.4433C33.2464 20.4433 33.006 20.3703 32.8015 20.2337C32.597 20.0971 32.4376 19.9028 32.3435 19.6756C32.2494 19.4484 32.2248 19.1984 32.2727 18.9571C32.3207 18.7159 32.4392 18.4943 32.6131 18.3204C32.787 18.1465 33.0086 18.0281 33.2498 17.9801C33.491 17.9321 33.741 17.9567 33.9683 18.0509C34.1955 18.145 34.3897 18.3044 34.5263 18.5089C34.663 18.7134 34.7359 18.9538 34.7359 19.1997C34.7359 19.5289 34.6054 19.8446 34.373 20.0777C34.1406 20.3108 33.8253 20.4423 33.4961 20.4433H33.4924ZM51.2155 20.4433C50.9695 20.4433 50.7291 20.3703 50.5246 20.2337C50.3201 20.0971 50.1607 19.9028 50.0666 19.6756C49.9725 19.4484 49.9478 19.1984 49.9958 18.9571C50.0438 18.7159 50.1622 18.4943 50.3361 18.3204C50.5101 18.1465 50.7316 18.0281 50.9729 17.9801C51.2141 17.9321 51.4641 17.9567 51.6913 18.0509C51.9186 18.145 52.1128 18.3044 52.2494 18.5089C52.3861 18.7134 52.459 18.9538 52.459 19.1997C52.459 19.5289 52.3285 19.8446 52.0961 20.0777C51.8637 20.3108 51.5483 20.4423 51.2192 20.4433H51.2155Z" fill="white"/>
<path d="M33.6491 19.3528C33.6491 19.3528 33.2757 3.03013 39.5717 1.20778C45.1732 -0.412911 49.1278 7.86607 45.3711 11.5145C42.0326 14.7559 43.0484 7.03332 48.5901 8.52704C55.0057 10.2523 51.2713 19.3566 51.2713 19.3566" stroke="white" stroke-width="0.746864" stroke-miterlimit="10" stroke-linecap="round"/>
<path d="M42.3763 87L61.2047 73.3399H23.5105L42.3763 87Z" fill="#54D4F1"/>
<path d="M1 42.7297H83.7151" stroke="white" stroke-width="0.746864" stroke-miterlimit="10" stroke-linecap="round"/>
<path d="M1 70.2329H83.7151" stroke="white" stroke-width="0.746864" stroke-miterlimit="10" stroke-linecap="round"/>
<g style="mix-blend-mode:multiply">
<path d="M52.3208 79.7853L23.5105 73.3399L42.3763 87L52.3208 79.7853Z" fill="#54D4F1"/>
</g>
<path d="M20.3978 61.2925L19.1891 63.6303V64.7843H18.3385V63.6303L17.1298 61.2925H18.0948L18.7712 62.7549L19.4428 61.2925H20.3978ZM22.3919 64.8192C22.0636 64.8192 21.7618 64.7429 21.4866 64.5903C21.2147 64.4378 20.9975 64.2256 20.835 63.9537C20.6758 63.6784 20.5962 63.37 20.5962 63.0285C20.5962 62.6869 20.6758 62.3802 20.835 62.1083C20.9975 61.8363 21.2147 61.6241 21.4866 61.4716C21.7618 61.319 22.0636 61.2428 22.3919 61.2428C22.7202 61.2428 23.0203 61.319 23.2922 61.4716C23.5674 61.6241 23.783 61.8363 23.9388 62.1083C24.098 62.3802 24.1776 62.6869 24.1776 63.0285C24.1776 63.37 24.098 63.6784 23.9388 63.9537C23.7797 64.2256 23.5641 64.4378 23.2922 64.5903C23.0203 64.7429 22.7202 64.8192 22.3919 64.8192ZM22.3919 64.0432C22.6704 64.0432 22.8926 63.9503 23.0584 63.7646C23.2275 63.5789 23.3121 63.3335 23.3121 63.0285C23.3121 62.7201 23.2275 62.4747 23.0584 62.2923C22.8926 62.1066 22.6704 62.0138 22.3919 62.0138C22.11 62.0138 21.8845 62.1049 21.7154 62.2873C21.5496 62.4697 21.4667 62.7168 21.4667 63.0285C21.4667 63.3369 21.5496 63.5839 21.7154 63.7696C21.8845 63.952 22.11 64.0432 22.3919 64.0432ZM25.4865 61.2925V63.3816C25.4865 63.5905 25.5379 63.7514 25.6406 63.8641C25.7434 63.9769 25.8943 64.0332 26.0933 64.0332C26.2923 64.0332 26.4448 63.9769 26.5509 63.8641C26.657 63.7514 26.7101 63.5905 26.7101 63.3816V61.2925H27.5607V63.3767C27.5607 63.6884 27.4943 63.952 27.3617 64.1675C27.229 64.3831 27.05 64.5456 26.8245 64.655C26.6023 64.7644 26.3536 64.8192 26.0784 64.8192C25.8031 64.8192 25.5561 64.7661 25.3372 64.66C25.1217 64.5505 24.9509 64.3881 24.8249 64.1725C24.6989 63.9537 24.6359 63.6884 24.6359 63.3767V61.2925H25.4865ZM29.9387 64.7843L29.2124 63.4662H29.0085V64.7843H28.1579V61.2925H29.5855C29.8607 61.2925 30.0945 61.3406 30.2869 61.4368C30.4825 61.5329 30.6284 61.6656 30.7246 61.8347C30.8207 62.0005 30.8688 62.1862 30.8688 62.3918C30.8688 62.6239 30.8025 62.8312 30.6699 63.0135C30.5405 63.1959 30.3482 63.3253 30.0929 63.4015L30.8987 64.7843H29.9387ZM29.0085 62.8643H29.5358C29.6916 62.8643 29.8077 62.8262 29.884 62.7499C29.9635 62.6737 30.0033 62.5659 30.0033 62.4266C30.0033 62.294 29.9635 62.1895 29.884 62.1132C29.8077 62.037 29.6916 61.9988 29.5358 61.9988H29.0085V62.8643ZM33.7203 64.8192C33.4649 64.8192 33.2361 64.7777 33.0338 64.6948C32.8316 64.6119 32.6691 64.4892 32.5464 64.3267C32.427 64.1642 32.364 63.9686 32.3574 63.7398H33.2627C33.2759 63.8691 33.3207 63.9686 33.397 64.0382C33.4732 64.1045 33.5727 64.1377 33.6954 64.1377C33.8214 64.1377 33.9209 64.1095 33.9939 64.0531C34.0668 63.9934 34.1033 63.9122 34.1033 63.8094C34.1033 63.7232 34.0734 63.6519 34.0137 63.5955C33.9574 63.5391 33.8861 63.4927 33.7999 63.4562C33.717 63.4198 33.5976 63.3783 33.4417 63.3319C33.2162 63.2623 33.0322 63.1926 32.8896 63.123C32.747 63.0533 32.6243 62.9505 32.5215 62.8146C32.4187 62.6786 32.3673 62.5012 32.3673 62.2824C32.3673 61.9574 32.485 61.7037 32.7205 61.5213C32.9559 61.3356 33.2627 61.2428 33.6407 61.2428C34.0254 61.2428 34.3354 61.3356 34.5708 61.5213C34.8063 61.7037 34.9323 61.959 34.9489 62.2873H34.0287C34.022 62.1746 33.9806 62.0867 33.9043 62.0237C33.828 61.9574 33.7302 61.9242 33.6108 61.9242C33.508 61.9242 33.4251 61.9524 33.3621 62.0088C33.2991 62.0618 33.2676 62.1398 33.2676 62.2426C33.2676 62.3553 33.3207 62.4432 33.4268 62.5062C33.5329 62.5692 33.6987 62.6372 33.9242 62.7101C34.1497 62.7864 34.3321 62.8594 34.4714 62.929C34.614 62.9986 34.7367 63.0998 34.8395 63.2324C34.9423 63.3651 34.9936 63.5358 34.9936 63.7447C34.9936 63.9437 34.9423 64.1244 34.8395 64.2869C34.74 64.4494 34.5941 64.5787 34.4017 64.6749C34.2094 64.7711 33.9822 64.8192 33.7203 64.8192ZM36.3677 64.1277H37.4819V64.7843H35.5171V61.2925H36.3677V64.1277ZM39.539 64.8192C39.2107 64.8192 38.9089 64.7429 38.6337 64.5903C38.3618 64.4378 38.1446 64.2256 37.9821 63.9537C37.8229 63.6784 37.7433 63.37 37.7433 63.0285C37.7433 62.6869 37.8229 62.3802 37.9821 62.1083C38.1446 61.8363 38.3618 61.6241 38.6337 61.4716C38.9089 61.319 39.2107 61.2428 39.539 61.2428C39.8673 61.2428 40.1674 61.319 40.4393 61.4716C40.7145 61.6241 40.9301 61.8363 41.0859 62.1083C41.2451 62.3802 41.3247 62.6869 41.3247 63.0285C41.3247 63.37 41.2451 63.6784 41.0859 63.9537C40.9268 64.2256 40.7112 64.4378 40.4393 64.5903C40.1674 64.7429 39.8673 64.8192 39.539 64.8192ZM39.539 64.0432C39.8175 64.0432 40.0397 63.9503 40.2055 63.7646C40.3746 63.5789 40.4592 63.3335 40.4592 63.0285C40.4592 62.7201 40.3746 62.4747 40.2055 62.2923C40.0397 62.1066 39.8175 62.0138 39.539 62.0138C39.2571 62.0138 39.0316 62.1049 38.8625 62.2873C38.6967 62.4697 38.6138 62.7168 38.6138 63.0285C38.6138 63.3369 38.6967 63.5839 38.8625 63.7696C39.0316 63.952 39.2571 64.0432 39.539 64.0432ZM44.1158 62.3968C44.0528 62.2807 43.9616 62.1928 43.8422 62.1331C43.7262 62.0701 43.5886 62.0386 43.4294 62.0386C43.1542 62.0386 42.9336 62.1298 42.7678 62.3122C42.602 62.4913 42.5191 62.7317 42.5191 63.0334C42.5191 63.3551 42.6053 63.6071 42.7778 63.7895C42.9535 63.9686 43.194 64.0581 43.499 64.0581C43.7079 64.0581 43.8837 64.0051 44.0263 63.8989C44.1722 63.7928 44.2783 63.6403 44.3446 63.4413H43.2652V62.8146H45.1156V63.6055C45.0526 63.8177 44.9448 64.015 44.7923 64.1974C44.6431 64.3798 44.4524 64.5273 44.2203 64.6401C43.9882 64.7528 43.7262 64.8092 43.4344 64.8092C43.0895 64.8092 42.7811 64.7346 42.5092 64.5854C42.2406 64.4328 42.03 64.2223 41.8775 63.9537C41.7282 63.6851 41.6536 63.3783 41.6536 63.0334C41.6536 62.6886 41.7282 62.3818 41.8775 62.1132C42.03 61.8413 42.2406 61.6307 42.5092 61.4815C42.7778 61.329 43.0845 61.2527 43.4294 61.2527C43.8472 61.2527 44.1987 61.3539 44.4839 61.5561C44.7724 61.7584 44.9631 62.0386 45.0559 62.3968H44.1158ZM47.7604 64.1675H46.4572L46.2483 64.7843H45.3579L46.6214 61.2925H47.6062L48.8697 64.7843H47.9694L47.7604 64.1675ZM47.5416 63.511L47.1088 62.2326L46.6811 63.511H47.5416ZM52.3779 64.7843H51.5274L50.1048 62.6305V64.7843H49.2542V61.2925H50.1048L51.5274 63.4562V61.2925H52.3779V64.7843Z" fill="white"/>
<path d="M5.90598 57.9192C5.32802 57.9192 4.81011 57.8254 4.35224 57.6377C3.89438 57.4501 3.52658 57.1723 3.24886 56.8045C2.97865 56.4367 2.83603 55.9939 2.82102 55.476H4.87015C4.90018 55.7687 5.00151 55.9939 5.17415 56.1515C5.34678 56.3016 5.57196 56.3767 5.84968 56.3767C6.13491 56.3767 6.36009 56.3129 6.52522 56.1853C6.69035 56.0502 6.77292 55.8663 6.77292 55.6336C6.77292 55.4384 6.70537 55.2771 6.57026 55.1495C6.44266 55.0219 6.28128 54.9168 6.08612 54.8342C5.89847 54.7517 5.62826 54.6578 5.27548 54.5527C4.76507 54.3951 4.34849 54.2375 4.02573 54.0799C3.70297 53.9222 3.42525 53.6896 3.19257 53.3818C2.95988 53.0741 2.84354 52.6725 2.84354 52.1771C2.84354 51.4415 3.11 50.8673 3.64293 50.4545C4.17585 50.0341 4.87015 49.824 5.72584 49.824C6.59653 49.824 7.29834 50.0341 7.83126 50.4545C8.36419 50.8673 8.64941 51.4453 8.68694 52.1884H6.60404C6.58902 51.9332 6.4952 51.7342 6.32256 51.5916C6.14992 51.4415 5.9285 51.3665 5.65828 51.3665C5.4256 51.3665 5.23795 51.4303 5.09533 51.5579C4.95272 51.678 4.88141 51.8543 4.88141 52.087C4.88141 52.3422 5.00151 52.5411 5.2417 52.6838C5.48189 52.8264 5.85719 52.9802 6.3676 53.1454C6.878 53.318 7.29083 53.4831 7.60608 53.6408C7.92884 53.7984 8.20656 54.0273 8.43925 54.3276C8.67193 54.6278 8.78828 55.0144 8.78828 55.4872C8.78828 55.9376 8.67193 56.3467 8.43925 56.7145C8.21407 57.0823 7.8838 57.375 7.44846 57.5927C7.01311 57.8103 6.49895 57.9192 5.90598 57.9192ZM16.8186 49.9366V57.8404H14.8933V54.5865H11.8984V57.8404H9.97311V49.9366H11.8984V53.0328H14.8933V49.9366H16.8186ZM21.9464 57.9192C21.2033 57.9192 20.5203 57.7465 19.8973 57.4013C19.2818 57.056 18.7901 56.5756 18.4223 55.9601C18.0621 55.3371 17.8819 54.6391 17.8819 53.8659C17.8819 53.0928 18.0621 52.3985 18.4223 51.783C18.7901 51.1675 19.2818 50.6872 19.8973 50.3419C20.5203 49.9966 21.2033 49.824 21.9464 49.824C22.6895 49.824 23.3688 49.9966 23.9843 50.3419C24.6073 50.6872 25.0952 51.1675 25.4479 51.783C25.8082 52.3985 25.9884 53.0928 25.9884 53.8659C25.9884 54.6391 25.8082 55.3371 25.4479 55.9601C25.0877 56.5756 24.5998 57.056 23.9843 57.4013C23.3688 57.7465 22.6895 57.9192 21.9464 57.9192ZM21.9464 56.1628C22.5769 56.1628 23.0798 55.9526 23.4551 55.5323C23.8379 55.1119 24.0293 54.5565 24.0293 53.8659C24.0293 53.1679 23.8379 52.6124 23.4551 52.1996C23.0798 51.7793 22.5769 51.5691 21.9464 51.5691C21.3084 51.5691 20.798 51.7755 20.4152 52.1884C20.0399 52.6012 19.8522 53.1604 19.8522 53.8659C19.8522 54.564 20.0399 55.1232 20.4152 55.5435C20.798 55.9564 21.3084 56.1628 21.9464 56.1628ZM33.083 52.4811C33.083 52.939 32.9779 53.3593 32.7678 53.7421C32.5576 54.1174 32.2348 54.4214 31.7995 54.6541C31.3642 54.8868 30.8237 55.0031 30.1782 55.0031H28.9848V57.8404H27.0595V49.9366H30.1782C30.8087 49.9366 31.3416 50.0454 31.777 50.2631C32.2123 50.4807 32.5388 50.781 32.7565 51.1638C32.9742 51.5466 33.083 51.9857 33.083 52.4811ZM30.0318 53.4719C30.3996 53.4719 30.6736 53.3856 30.8537 53.2129C31.0339 53.0403 31.124 52.7963 31.124 52.4811C31.124 52.1658 31.0339 51.9219 30.8537 51.7493C30.6736 51.5766 30.3996 51.4903 30.0318 51.4903H28.9848V53.4719H30.0318Z" fill="white"/>
<path d="M38.3965 56.3542H40.9186V57.8404H36.4713V49.9366H38.3965V56.3542ZM45.5748 57.9192C44.8318 57.9192 44.1487 57.7465 43.5257 57.4013C42.9102 57.056 42.4186 56.5756 42.0508 55.9601C41.6905 55.3371 41.5104 54.6391 41.5104 53.8659C41.5104 53.0928 41.6905 52.3985 42.0508 51.783C42.4186 51.1675 42.9102 50.6872 43.5257 50.3419C44.1487 49.9966 44.8318 49.824 45.5748 49.824C46.3179 49.824 46.9972 49.9966 47.6127 50.3419C48.2357 50.6872 48.7236 51.1675 49.0764 51.783C49.4367 52.3985 49.6168 53.0928 49.6168 53.8659C49.6168 54.6391 49.4367 55.3371 49.0764 55.9601C48.7161 56.5756 48.2282 57.056 47.6127 57.4013C46.9972 57.7465 46.3179 57.9192 45.5748 57.9192ZM45.5748 56.1628C46.2053 56.1628 46.7082 55.9526 47.0835 55.5323C47.4664 55.1119 47.6578 54.5565 47.6578 53.8659C47.6578 53.1679 47.4664 52.6124 47.0835 52.1996C46.7082 51.7793 46.2053 51.5691 45.5748 51.5691C44.9368 51.5691 44.4264 51.7755 44.0436 52.1884C43.6683 52.6012 43.4807 53.1604 43.4807 53.8659C43.4807 54.564 43.6683 55.1232 44.0436 55.5435C44.4264 55.9564 44.9368 56.1628 45.5748 56.1628ZM50.3614 53.8772C50.3614 53.0966 50.5303 52.4023 50.8681 51.7943C51.2058 51.1788 51.6749 50.7022 52.2754 50.3644C52.8834 50.0191 53.5702 49.8465 54.3358 49.8465C55.2741 49.8465 56.0772 50.0942 56.7452 50.5896C57.4133 51.085 57.8599 51.7605 58.0851 52.6162H55.9684C55.8107 52.2859 55.5856 52.0345 55.2928 51.8618C55.0076 51.6892 54.6811 51.6029 54.3133 51.6029C53.7203 51.6029 53.2399 51.8093 52.8722 52.2221C52.5044 52.635 52.3205 53.1867 52.3205 53.8772C52.3205 54.5678 52.5044 55.1194 52.8722 55.5323C53.2399 55.9451 53.7203 56.1515 54.3133 56.1515C54.6811 56.1515 55.0076 56.0652 55.2928 55.8926C55.5856 55.7199 55.8107 55.4685 55.9684 55.1382H58.0851C57.8599 55.9939 57.4133 56.6694 56.7452 57.1648C56.0772 57.6527 55.2741 57.8967 54.3358 57.8967C53.5702 57.8967 52.8834 57.7278 52.2754 57.39C51.6749 57.0447 51.2058 56.5681 50.8681 55.9601C50.5303 55.3521 50.3614 54.6578 50.3614 53.8772ZM64.1843 56.4443H61.2344L60.7615 57.8404H58.7462L61.6059 49.9366H63.8352L66.695 57.8404H64.6571L64.1843 56.4443ZM63.6889 54.9581L62.7093 52.0645L61.7411 54.9581H63.6889ZM69.4907 56.3542H72.0127V57.8404H67.5654V49.9366H69.4907V56.3542Z" fill="#54D4F1"/>
</svg>
