<svg width="25" height="25" viewBox="0 0 25 25" fill="none" xmlns="http://www.w3.org/2000/svg">
<g clip-path="url(#clip0_9_797)">
<path d="M12.4586 2.89553C15.6188 2.89553 15.993 2.90939 17.2358 2.96484C18.3909 3.01566 19.0146 3.20971 19.4304 3.37141C19.9802 3.58394 20.3776 3.84267 20.7888 4.25387C21.2046 4.66969 21.4587 5.0624 21.6712 5.61221C21.8329 6.02802 22.027 6.65637 22.0778 7.8068C22.1332 9.05425 22.1471 9.42849 22.1471 12.5841C22.1471 15.7443 22.1332 16.1185 22.0778 17.3614C22.027 18.5164 21.8329 19.1401 21.6712 19.556C21.4587 20.1058 21.2 20.5031 20.7888 20.9143C20.3729 21.3301 19.9802 21.5842 19.4304 21.7967C19.0146 21.9585 18.3863 22.1525 17.2358 22.2033C15.9884 22.2588 15.6141 22.2726 12.4586 22.2726C9.29834 22.2726 8.92411 22.2588 7.68127 22.2033C6.52623 22.1525 5.9025 21.9585 5.48668 21.7967C4.93688 21.5842 4.53954 21.3255 4.12835 20.9143C3.71253 20.4985 3.45842 20.1058 3.24589 19.556C3.08418 19.1401 2.89013 18.5118 2.83931 17.3614C2.78387 16.1139 2.77001 15.7397 2.77001 12.5841C2.77001 9.42387 2.78387 9.04963 2.83931 7.8068C2.89013 6.65175 3.08418 6.02802 3.24589 5.61221C3.45842 5.0624 3.71715 4.66507 4.12835 4.25387C4.54416 3.83805 4.93688 3.58394 5.48668 3.37141C5.9025 3.20971 6.53085 3.01566 7.68127 2.96484C8.92411 2.90939 9.29834 2.89553 12.4586 2.89553ZM12.4586 0.765625C9.24752 0.765625 8.84556 0.779486 7.58425 0.834928C6.32756 0.89037 5.46358 1.09366 4.71511 1.38473C3.9343 1.68966 3.27361 2.09162 2.61754 2.75231C1.95685 3.40838 1.5549 4.06906 1.24997 4.84526C0.958893 5.59835 0.755605 6.4577 0.700162 7.71439C0.64472 8.98033 0.630859 9.38228 0.630859 12.5933C0.630859 15.8044 0.64472 16.2063 0.700162 17.4676C0.755605 18.7243 0.958893 19.5883 1.24997 20.3368C1.5549 21.1176 1.95685 21.7783 2.61754 22.4343C3.27361 23.0904 3.9343 23.497 4.71049 23.7973C5.46358 24.0884 6.32294 24.2916 7.57963 24.3471C8.84094 24.4025 9.2429 24.4164 12.4539 24.4164C15.665 24.4164 16.0669 24.4025 17.3282 24.3471C18.5849 24.2916 19.4489 24.0884 20.1974 23.7973C20.9736 23.497 21.6343 23.0904 22.2903 22.4343C22.9464 21.7783 23.353 21.1176 23.6533 20.3414C23.9444 19.5883 24.1476 18.7289 24.2031 17.4722C24.2585 16.2109 24.2724 15.809 24.2724 12.5979C24.2724 9.3869 24.2585 8.98495 24.2031 7.72364C24.1476 6.46694 23.9444 5.60297 23.6533 4.8545C23.3622 4.06906 22.9603 3.40838 22.2996 2.75231C21.6435 2.09624 20.9828 1.68966 20.2066 1.38935C19.4535 1.09828 18.5942 0.89499 17.3375 0.839548C16.0715 0.779486 15.6696 0.765625 12.4586 0.765625Z" fill="white"/>
<path d="M12.4586 6.51758C9.10435 6.51758 6.38306 9.23887 6.38306 12.5931C6.38306 15.9474 9.10435 18.6687 12.4586 18.6687C15.8129 18.6687 18.5342 15.9474 18.5342 12.5931C18.5342 9.23887 15.8129 6.51758 12.4586 6.51758ZM12.4586 16.5342C10.2825 16.5342 8.51759 14.7692 8.51759 12.5931C8.51759 10.417 10.2825 8.65211 12.4586 8.65211C14.6347 8.65211 16.3996 10.417 16.3996 12.5931C16.3996 14.7692 14.6347 16.5342 12.4586 16.5342Z" fill="white"/>
<path d="M20.1928 6.27729C20.1928 7.06272 19.5552 7.69569 18.7744 7.69569C17.9889 7.69569 17.356 7.0581 17.356 6.27729C17.356 5.49185 17.9935 4.85889 18.7744 4.85889C19.5552 4.85889 20.1928 5.49647 20.1928 6.27729Z" fill="white"/>
</g>
<defs>
<clipPath id="clip0_9_797">
<rect width="23.6554" height="23.6554" fill="white" transform="translate(0.630859 0.765625)"/>
</clipPath>
</defs>
</svg>
