<svg width="25" height="25" viewBox="0 0 25 25" fill="none" xmlns="http://www.w3.org/2000/svg">
<g clip-path="url(#clip0_9_794)">
<path d="M22.5769 0.765625H2.41904C1.45342 0.765625 0.672607 1.52796 0.672607 2.47048V22.7115C0.672607 23.6541 1.45342 24.421 2.41904 24.421H22.5769C23.5426 24.421 24.328 23.6541 24.328 22.7162V2.47048C24.328 1.52796 23.5426 0.765625 22.5769 0.765625ZM7.69068 20.9235H4.17933V9.63177H7.69068V20.9235ZM5.93501 8.09325C4.80768 8.09325 3.8975 7.18307 3.8975 6.06037C3.8975 4.93766 4.80768 4.02748 5.93501 4.02748C7.05771 4.02748 7.96789 4.93766 7.96789 6.06037C7.96789 7.17845 7.05771 8.09325 5.93501 8.09325ZM20.8305 20.9235H17.3238V15.4347C17.3238 14.1272 17.3007 12.4409 15.4988 12.4409C13.6738 12.4409 13.3966 13.8685 13.3966 15.3423V20.9235H9.89451V9.63177H13.258V11.1749H13.3042C13.7709 10.2878 14.9167 9.34994 16.6215 9.34994C20.1744 9.34994 20.8305 11.6878 20.8305 14.7278V20.9235Z" fill="white"/>
</g>
<defs>
<clipPath id="clip0_9_794">
<rect width="23.6554" height="23.6554" fill="white" transform="translate(0.672607 0.765625)"/>
</clipPath>
</defs>
</svg>
