<svg width="41" height="25" viewBox="0 0 41 25" fill="none" xmlns="http://www.w3.org/2000/svg">
<path d="M40.3502 12.5C40.3502 19.4058 34.7647 25 27.8763 25C20.9878 25 15.4023 19.4058 15.4023 12.5C15.4023 5.59416 20.9791 0 27.8676 0C34.7561 0 40.3502 5.59416 40.3502 12.5Z" fill="#F79F1A"/>
<path d="M24.9479 12.5C24.9479 19.4058 19.3624 25 12.4739 25C5.58548 25 0 19.4058 0 12.5C0 5.59416 5.58548 0 12.4739 0C19.3624 0 24.9479 5.59416 24.9479 12.5Z" fill="#EA001B"/>
<path d="M20.1682 2.65869C17.2582 4.94326 15.3906 8.50476 15.3906 12.5006C15.3906 16.4964 17.2582 20.0579 20.1682 22.3425C23.0783 20.0579 24.9459 16.4964 24.9459 12.5006C24.9459 8.50476 23.0783 4.95195 20.1682 2.65869Z" fill="#FF5F01"/>
<path d="M40.3185 19.1373V18.6959H40.2081L40.0757 19.0048L39.9433 18.6848H39.8219V19.1262H39.8991V18.7952L40.0205 19.0821H40.1088L40.2412 18.7952V19.1373H40.3185ZM39.5791 19.1373V18.7621H39.7336V18.6848H39.3584V18.7621H39.5129V19.1373H39.5791Z" fill="#F79F1A"/>
</svg>
