<svg width="22" height="21" viewBox="0 0 22 21" fill="none" xmlns="http://www.w3.org/2000/svg">
<path d="M2.00195 9V14C2.00195 16.8284 2.00195 18.2426 2.88063 19.1213C3.75931 20 5.17353 20 8.00195 20H14.002C16.8304 20 18.2446 20 19.1233 19.1213C20.002 18.2426 20.002 16.8284 20.002 14V9" stroke="white" stroke-width="1.5" stroke-linecap="round"/>
<path d="M14.002 15.5C13.3179 16.1072 12.2287 16.5 11.002 16.5C9.7752 16.5 8.68605 16.1072 8.00195 15.5" stroke="white" stroke-width="1.5" stroke-linecap="round"/>
<path d="M1.91395 3.73509L1.20002 3.5053H1.20002L1.91395 3.73509ZM1.23022 5.85933L1.94415 6.08912L1.23022 5.85933ZM20.09 3.73509L19.376 3.96488V3.96488L20.09 3.73509ZM20.7737 5.85933L21.4876 5.62954L20.7737 5.85933ZM8.65831 8.27316C8.36729 7.97841 7.89243 7.97538 7.59767 8.2664C7.30291 8.55742 7.29988 9.03228 7.5909 9.32703L8.65831 8.27316ZM14.4131 8.27261C14.1222 7.97778 13.6473 7.97464 13.3525 8.26559C13.0577 8.55654 13.0545 9.0314 13.3455 9.32623L14.4131 8.27261ZM1.37728 8.07004L1.98529 7.63091L1.98529 7.63091L1.37728 8.07004ZM9.87464 7.18818C9.97857 6.78722 9.73778 6.37792 9.33682 6.27399C8.93586 6.17006 8.52656 6.41085 8.42263 6.81182L9.87464 7.18818ZM15.6287 7.18818C15.7326 6.78722 15.4918 6.37792 15.0908 6.27399C14.6899 6.17006 14.2806 6.41085 14.1767 6.81182L15.6287 7.18818ZM20.6266 8.07004L20.0186 7.63091V7.63091L20.6266 8.07004ZM20.9755 7.20667L20.2344 7.09103V7.09103L20.9755 7.20667ZM1.02845 7.20667L0.287423 7.32231L1.02845 7.20667ZM3.05703 1.37752L2.6084 0.776487L2.6084 0.776487L3.05703 1.37752ZM1.20002 3.5053L0.516288 5.62954L1.94415 6.08912L2.62787 3.96488L1.20002 3.5053ZM19.376 3.96488L20.0598 6.08912L21.4876 5.62954L20.8039 3.5053L19.376 3.96488ZM5.57817 1.75H16.4257V0.25H5.57817V1.75ZM11.0013 9.25C10.0823 9.25 9.25371 8.87621 8.65831 8.27316L7.5909 9.32703C8.4577 10.205 9.66658 10.75 11.0013 10.75V9.25ZM16.7567 9.25C15.8374 9.25 15.0086 8.87598 14.4131 8.27261L13.3455 9.32623C14.2123 10.2046 15.4215 10.75 16.7567 10.75V9.25ZM5.24726 9.25C4.01307 9.25 2.67224 8.58203 1.98529 7.63091L0.769283 8.50917C1.75344 9.87179 3.55798 10.75 5.24726 10.75V9.25ZM8.42263 6.81182C8.05992 8.21116 6.77749 9.25 5.24726 9.25V10.75C7.47107 10.75 9.34299 9.2393 9.87464 7.18818L8.42263 6.81182ZM14.1767 6.81182C13.8139 8.21116 12.5315 9.25 11.0013 9.25V10.75C13.2251 10.75 15.097 9.2393 15.6287 7.18818L14.1767 6.81182ZM20.0186 7.63091C19.3317 8.58203 17.9908 9.25 16.7567 9.25V10.75C18.4459 10.75 20.2505 9.87179 21.2346 8.50917L20.0186 7.63091ZM20.0598 6.08912C20.2469 6.6704 20.2796 6.80138 20.2344 7.09103L21.7165 7.32231C21.8227 6.6415 21.6705 6.19774 21.4876 5.62954L20.0598 6.08912ZM21.2346 8.50917C21.3193 8.39189 21.4347 8.23648 21.5262 8.03046C21.619 7.82192 21.6737 7.59674 21.7165 7.32231L20.2344 7.09103C20.2015 7.30184 20.1728 7.38229 20.1556 7.42111C20.1372 7.46244 20.116 7.49609 20.0186 7.63091L21.2346 8.50917ZM20.8039 3.5053C20.5966 2.86137 20.4234 2.31957 20.2329 1.89553C20.0352 1.45545 19.789 1.07024 19.3955 0.776487L18.4983 1.97854C18.6105 2.06231 18.7234 2.19586 18.8646 2.51018C19.013 2.84054 19.1584 3.28877 19.376 3.96488L20.8039 3.5053ZM16.4257 1.75C17.1154 1.75 17.5675 1.75121 17.9124 1.792C18.2366 1.83033 18.3882 1.89642 18.4983 1.97854L19.3955 0.776487C18.9998 0.4811 18.5626 0.358429 18.0886 0.302377C17.6353 0.248786 17.0797 0.25 16.4257 0.25V1.75ZM0.516288 5.62954C0.333402 6.19774 0.18118 6.6415 0.287423 7.32231L1.76949 7.09103C1.72428 6.80137 1.75705 6.6704 1.94415 6.08912L0.516288 5.62954ZM1.98529 7.63091C1.88792 7.49609 1.86669 7.46244 1.84831 7.42111C1.83106 7.38229 1.80238 7.30184 1.76949 7.09103L0.287423 7.32231C0.330248 7.59674 0.384951 7.82192 0.477663 8.03046C0.569254 8.23648 0.684582 8.39189 0.769283 8.50917L1.98529 7.63091ZM2.62787 3.96488C2.84549 3.28877 2.9909 2.84054 3.1393 2.51018C3.28049 2.19586 3.39343 2.06231 3.50565 1.97854L2.6084 0.776487C2.21486 1.07024 1.9687 1.45545 1.77101 1.89553C1.58053 2.31957 1.40728 2.86137 1.20002 3.5053L2.62787 3.96488ZM5.57817 0.25C4.92425 0.25 4.36861 0.248786 3.91535 0.302377C3.44128 0.358429 3.00413 0.4811 2.6084 0.776487L3.50565 1.97854C3.61568 1.89642 3.76731 1.83033 4.09148 1.792C4.43645 1.75121 4.8885 1.75 5.57817 1.75V0.25Z" fill="white"/>
</svg>
