<svg width="22" height="21" viewBox="0 0 22 21" fill="none" xmlns="http://www.w3.org/2000/svg">
<path d="M2 9V14C2 16.8284 2 18.2426 2.87868 19.1213C3.75736 20 5.17157 20 8 20H14C16.8284 20 18.2426 20 19.1213 19.1213C20 18.2426 20 16.8284 20 14V9" stroke="#00B5DE" stroke-width="1.5" stroke-linecap="round"/>
<path d="M14 15.5C13.3159 16.1072 12.2268 16.5 11 16.5C9.77325 16.5 8.68409 16.1072 8 15.5" stroke="#00B5DE" stroke-width="1.5" stroke-linecap="round"/>
<path d="M1.91199 3.73509L1.19806 3.5053H1.19806L1.91199 3.73509ZM1.22827 5.85933L1.94219 6.08912L1.22827 5.85933ZM20.088 3.73509L19.3741 3.96488V3.96488L20.088 3.73509ZM20.7717 5.85933L21.4857 5.62954L20.7717 5.85933ZM8.65635 8.27316C8.36534 7.97841 7.89047 7.97538 7.59572 8.2664C7.30096 8.55742 7.29793 9.03228 7.58895 9.32703L8.65635 8.27316ZM14.4112 8.27261C14.1202 7.97778 13.6454 7.97464 13.3505 8.26559C13.0557 8.55654 13.0526 9.0314 13.3435 9.32623L14.4112 8.27261ZM1.37533 8.07004L1.98333 7.63091L1.98333 7.63091L1.37533 8.07004ZM9.87269 7.18818C9.97662 6.78722 9.73583 6.37792 9.33487 6.27399C8.9339 6.17006 8.52461 6.41085 8.42068 6.81182L9.87269 7.18818ZM15.6267 7.18818C15.7306 6.78722 15.4899 6.37792 15.0889 6.27399C14.6879 6.17006 14.2786 6.41085 14.1747 6.81182L15.6267 7.18818ZM20.6247 8.07004L20.0167 7.63091V7.63091L20.6247 8.07004ZM20.9735 7.20667L20.2325 7.09103V7.09103L20.9735 7.20667ZM1.0265 7.20667L0.28547 7.32231L1.0265 7.20667ZM3.05507 1.37752L2.60645 0.776487L2.60645 0.776487L3.05507 1.37752ZM1.19806 3.5053L0.514335 5.62954L1.94219 6.08912L2.62592 3.96488L1.19806 3.5053ZM19.3741 3.96488L20.0578 6.08912L21.4857 5.62954L20.8019 3.5053L19.3741 3.96488ZM5.57622 1.75H16.4238V0.25H5.57622V1.75ZM10.9993 9.25C10.0804 9.25 9.25175 8.87621 8.65635 8.27316L7.58895 9.32703C8.45574 10.205 9.66463 10.75 10.9993 10.75V9.25ZM16.7547 9.25C15.8355 9.25 15.0066 8.87598 14.4112 8.27261L13.3435 9.32623C14.2104 10.2046 15.4196 10.75 16.7547 10.75V9.25ZM5.2453 9.25C4.01112 9.25 2.67028 8.58203 1.98333 7.63091L0.76733 8.50917C1.75148 9.87179 3.55603 10.75 5.2453 10.75V9.25ZM8.42068 6.81182C8.05796 8.21116 6.77553 9.25 5.2453 9.25V10.75C7.46912 10.75 9.34104 9.2393 9.87269 7.18818L8.42068 6.81182ZM14.1747 6.81182C13.812 8.21116 12.5296 9.25 10.9993 9.25V10.75C13.2231 10.75 15.0951 9.2393 15.6267 7.18818L14.1747 6.81182ZM20.0167 7.63091C19.3297 8.58203 17.9889 9.25 16.7547 9.25V10.75C18.444 10.75 20.2485 9.87179 21.2327 8.50917L20.0167 7.63091ZM20.0578 6.08912C20.2449 6.6704 20.2777 6.80138 20.2325 7.09103L21.7145 7.32231C21.8208 6.6415 21.6686 6.19774 21.4857 5.62954L20.0578 6.08912ZM21.2327 8.50917C21.3174 8.39189 21.4327 8.23648 21.5243 8.03046C21.617 7.82192 21.6717 7.59674 21.7145 7.32231L20.2325 7.09103C20.1996 7.30184 20.1709 7.38229 20.1536 7.42111C20.1353 7.46244 20.114 7.49609 20.0167 7.63091L21.2327 8.50917ZM20.8019 3.5053C20.5947 2.86137 20.4214 2.31957 20.2309 1.89553C20.0333 1.45545 19.7871 1.07024 19.3936 0.776487L18.4963 1.97854C18.6085 2.06231 18.7215 2.19586 18.8627 2.51018C19.0111 2.84054 19.1565 3.28877 19.3741 3.96488L20.8019 3.5053ZM16.4238 1.75C17.1135 1.75 17.5655 1.75121 17.9105 1.792C18.2346 1.83033 18.3863 1.89642 18.4963 1.97854L19.3936 0.776487C18.9978 0.4811 18.5607 0.358429 18.0866 0.302377C17.6333 0.248786 17.0777 0.25 16.4238 0.25V1.75ZM0.514335 5.62954C0.331449 6.19774 0.179227 6.6415 0.28547 7.32231L1.76753 7.09103C1.72233 6.80137 1.7551 6.6704 1.94219 6.08912L0.514335 5.62954ZM1.98333 7.63091C1.88596 7.49609 1.86474 7.46244 1.84636 7.42111C1.82911 7.38229 1.80043 7.30184 1.76753 7.09103L0.28547 7.32231C0.328295 7.59674 0.382998 7.82192 0.475709 8.03046C0.5673 8.23648 0.682629 8.39189 0.76733 8.50917L1.98333 7.63091ZM2.62592 3.96488C2.84354 3.28877 2.98895 2.84054 3.13735 2.51018C3.27854 2.19586 3.39148 2.06231 3.5037 1.97854L2.60645 0.776487C2.21291 1.07024 1.96674 1.45545 1.76906 1.89553C1.57858 2.31957 1.40532 2.86137 1.19806 3.5053L2.62592 3.96488ZM5.57622 0.25C4.9223 0.25 4.36666 0.248786 3.9134 0.302377C3.43932 0.358429 3.00218 0.4811 2.60645 0.776487L3.5037 1.97854C3.61373 1.89642 3.76536 1.83033 4.08952 1.792C4.43449 1.75121 4.88655 1.75 5.57622 1.75V0.25Z" fill="#00B5DE"/>
</svg>
