<svg width="25" height="25" viewBox="0 0 25 25" fill="none" xmlns="http://www.w3.org/2000/svg">
<g clip-path="url(#clip0_9_802)">
<path d="M8.03061 22.2036C16.955 22.2036 21.8376 14.8081 21.8376 8.39664C21.8376 8.18873 21.833 7.9762 21.8237 7.76829C22.7736 7.0814 23.5932 6.23058 24.2443 5.25583C23.3597 5.6494 22.4205 5.90643 21.4587 6.01816C22.4714 5.41118 23.2296 4.45763 23.5928 3.33429C22.6402 3.89886 21.5984 4.29711 20.5121 4.51198C19.7801 3.73426 18.8124 3.21931 17.7584 3.04676C16.7045 2.87421 15.623 3.05366 14.6813 3.55737C13.7396 4.06108 12.99 4.86099 12.5485 5.83343C12.107 6.80587 11.9981 7.89667 12.2387 8.9372C10.3097 8.8404 8.42268 8.33931 6.69982 7.46642C4.97697 6.59354 3.45678 5.36833 2.23781 3.87023C1.61827 4.9384 1.42869 6.20239 1.7076 7.40531C1.98651 8.60823 2.71299 9.65982 3.73938 10.3464C2.96882 10.3219 2.21515 10.1144 1.54063 9.74111V9.80117C1.53994 10.9221 1.92746 12.0087 2.63733 12.8763C3.3472 13.7438 4.33561 14.3388 5.43452 14.56C4.72073 14.7553 3.97157 14.7837 3.24502 14.6431C3.55511 15.6072 4.15844 16.4503 4.9708 17.055C5.78316 17.6596 6.76403 17.9955 7.7765 18.0159C6.05762 19.3661 3.9343 20.0984 1.74854 20.095C1.36091 20.0944 0.97366 20.0706 0.588867 20.0238C2.80937 21.4484 5.39242 22.205 8.03061 22.2036Z" fill="white"/>
</g>
<defs>
<clipPath id="clip0_9_802">
<rect width="23.6554" height="23.6554" fill="white" transform="translate(0.588867 0.765625)"/>
</clipPath>
</defs>
</svg>
