<svg width="62" height="21" viewBox="0 0 62 21" fill="none" xmlns="http://www.w3.org/2000/svg">
<path fill-rule="evenodd" clip-rule="evenodd" d="M24.9625 0.845815L21.8186 20.1675H26.8486L29.993 0.845815H24.9625ZM17.5864 0.845815L12.7906 14.1351L12.2233 11.2734L12.2237 11.2744L12.0987 10.633C11.5183 9.3821 10.174 7.00468 7.63567 4.97575C6.88522 4.37604 6.12875 3.86422 5.39746 3.42703L9.75611 20.1675H14.997L23.0003 0.845815H17.5864ZM37.218 6.20988C37.218 4.0254 42.1168 4.3061 44.2694 5.49226L44.9872 1.34249C44.9872 1.34249 42.7719 0.5 40.4628 0.5C37.9664 0.5 32.0385 1.59171 32.0385 6.89629C32.0385 11.8885 38.9961 11.9506 38.9961 14.5716C38.9961 17.1926 32.7559 16.7242 30.6965 15.0708L29.9481 19.4083C29.9481 19.4083 32.1941 20.5 35.6266 20.5C39.0588 20.5 44.2381 18.7219 44.2381 13.8852C44.2381 8.86171 37.218 8.39383 37.218 6.20988ZM57.7444 0.845815H53.7001C51.8326 0.845815 51.3779 2.28575 51.3779 2.28575L43.8763 20.1675H49.1193L50.1681 17.2976H56.5629L57.1529 20.1675H61.7716L57.7444 0.845815ZM51.6177 13.3326L54.2609 6.10203L55.7479 13.3326H51.6177Z" fill="#005BAC"/>
<path fill-rule="evenodd" clip-rule="evenodd" d="M10.6013 2.66471C10.6013 2.66471 10.393 0.920898 8.17024 0.920898H0.094593L0 1.24862C0 1.24862 3.8818 2.03994 7.6059 5.00461C11.1648 7.83812 12.3258 11.3702 12.3258 11.3702L10.6013 2.66471Z" fill="#F6AC1D"/>
</svg>
