<svg width="123" height="128" viewBox="0 0 123 128" fill="none" xmlns="http://www.w3.org/2000/svg">
<path d="M61.6657 12.1397C55.7022 12.139 49.7969 13.3131 44.2871 15.5949C38.7774 17.8768 33.7711 21.2216 29.5542 25.4385C25.3373 29.6554 21.9924 34.6617 19.7106 40.1714C17.4288 45.6812 16.2547 51.5865 16.2554 57.5501C16.2554 57.687 16.2554 57.8185 16.2554 57.9554H31.5383C31.5383 57.8623 31.5383 57.7746 31.5383 57.687C31.5383 53.7306 32.3175 49.8129 33.8316 46.1577C35.3456 42.5025 37.5648 39.1813 40.3624 36.3837C43.16 33.5861 46.4812 31.3669 50.1365 29.8528C53.7917 28.3388 57.7094 27.5595 61.6657 27.5595C65.6221 27.5595 69.5398 28.3388 73.195 29.8528C76.8503 31.3669 80.1715 33.5861 82.9691 36.3837C85.7667 39.1813 87.9859 42.5025 89.4999 46.1577C91.014 49.8129 91.7932 53.7306 91.7932 57.687C91.7932 57.7746 91.7932 57.8623 91.7932 57.9554H107.06C107.06 57.8185 107.06 57.687 107.06 57.5501C107.061 45.5089 102.28 33.9603 93.7667 25.4443C85.2538 16.9284 73.7069 12.1426 61.6657 12.1397Z" fill="#54D4F1"/>
<g style="mix-blend-mode:multiply">
<path d="M91.7933 57.687C91.7933 57.7746 91.7933 57.8623 91.7933 57.9554H107.06C107.06 57.8185 107.06 57.687 107.06 57.55C107.072 45.7435 102.471 34.3994 94.2363 25.9381L78.1428 32.4621C82.3353 35.2009 85.779 38.9416 88.1623 43.3459C90.5457 47.7502 91.7937 52.6792 91.7933 57.687Z" fill="#54D4F1"/>
</g>
<g style="mix-blend-mode:multiply">
<path d="M31.5383 57.9554C31.5383 57.8623 31.5383 57.7746 31.5383 57.687C31.5381 55.457 31.7861 53.234 32.2778 51.0589L16.2554 57.55L24.8171 57.9554H31.5383Z" fill="#54D4F1"/>
</g>
<path d="M79.1945 22.4762H44.1371L40.4889 57.9554H82.8591L79.1945 22.4762ZM48.6617 29.5205C48.3009 29.5205 47.9482 29.4136 47.6483 29.2131C47.3483 29.0127 47.1145 28.7278 46.9764 28.3945C46.8384 28.0612 46.8022 27.6944 46.8726 27.3406C46.943 26.9868 47.1167 26.6617 47.3718 26.4066C47.6269 26.1515 47.952 25.9778 48.3058 25.9074C48.6596 25.8371 49.0264 25.8732 49.3597 26.0112C49.693 26.1493 49.9779 26.3831 50.1783 26.6831C50.3788 26.983 50.4857 27.3357 50.4857 27.6965C50.4857 28.1793 50.2943 28.6424 49.9534 28.9844C49.6125 29.3263 49.15 29.5191 48.6671 29.5205H48.6617ZM74.6589 29.5205C74.2982 29.5205 73.9455 29.4136 73.6455 29.2131C73.3456 29.0127 73.1118 28.7278 72.9737 28.3945C72.8356 28.0612 72.7995 27.6944 72.8699 27.3406C72.9403 26.9868 73.114 26.6617 73.3691 26.4066C73.6242 26.1515 73.9492 25.9778 74.3031 25.9074C74.6569 25.8371 75.0237 25.8732 75.357 26.0112C75.6903 26.1493 75.9752 26.3831 76.1756 26.6831C76.376 26.983 76.483 27.3357 76.483 27.6965C76.483 28.1793 76.2916 28.6424 75.9507 28.9844C75.6098 29.3263 75.1472 29.5191 74.6644 29.5205H74.6589Z" fill="#414143"/>
<path d="M48.8917 27.921C48.8917 27.921 48.3439 3.97792 57.5794 1.30479C65.796 -1.07254 71.5969 11.0716 66.0863 16.4233C61.1892 21.178 62.6792 9.85003 70.8081 12.0411C80.2188 14.5718 74.7411 27.9265 74.7411 27.9265" stroke="#414143" stroke-width="1.09554" stroke-miterlimit="10" stroke-linecap="round"/>
<path d="M61.6932 127.15L89.3118 107.112H34.0197L61.6932 127.15Z" fill="#54D4F1"/>
<path d="M1 62.2116H122.332" stroke="#414143" stroke-width="1.09554" stroke-miterlimit="10" stroke-linecap="round"/>
<path d="M1 102.555H122.332" stroke="#414143" stroke-width="1.09554" stroke-miterlimit="10" stroke-linecap="round"/>
<g style="mix-blend-mode:multiply">
<path d="M76.2803 116.567L34.0197 107.112L61.6932 127.15L76.2803 116.567Z" fill="#54D4F1"/>
</g>
<path d="M29.4537 90.1063L27.6807 93.5356V95.2284H26.433V93.5356L24.66 90.1063H26.0755L27.0678 92.2515L28.0528 90.1063H29.4537ZM32.3788 95.2794C31.8972 95.2794 31.4546 95.1676 31.0509 94.9438C30.652 94.7201 30.3334 94.4087 30.095 94.0099C29.8616 93.6061 29.7448 93.1538 29.7448 92.6528C29.7448 92.1517 29.8616 91.7018 30.095 91.3029C30.3334 90.9041 30.652 90.5928 31.0509 90.369C31.4546 90.1453 31.8972 90.0334 32.3788 90.0334C32.8604 90.0334 33.3006 90.1453 33.6994 90.369C34.1032 90.5928 34.4193 90.9041 34.648 91.3029C34.8814 91.7018 34.9982 92.1517 34.9982 92.6528C34.9982 93.1538 34.8814 93.6061 34.648 94.0099C34.4145 94.4087 34.0983 94.7201 33.6994 94.9438C33.3006 95.1676 32.8604 95.2794 32.3788 95.2794ZM32.3788 94.1412C32.7874 94.1412 33.1133 94.005 33.3565 93.7326C33.6046 93.4602 33.7286 93.1003 33.7286 92.6528C33.7286 92.2004 33.6046 91.8404 33.3565 91.5729C33.1133 91.3005 32.7874 91.1643 32.3788 91.1643C31.9653 91.1643 31.6346 91.2981 31.3865 91.5656C31.1433 91.8331 31.0217 92.1955 31.0217 92.6528C31.0217 93.1051 31.1433 93.4675 31.3865 93.7399C31.6346 94.0074 31.9653 94.1412 32.3788 94.1412ZM36.9181 90.1063V93.1708C36.9181 93.4772 36.9935 93.7132 37.1443 93.8785C37.2951 94.0439 37.5164 94.1266 37.8082 94.1266C38.1001 94.1266 38.3238 94.0439 38.4795 93.8785C38.6351 93.7132 38.713 93.4772 38.713 93.1708V90.1063H39.9606V93.1635C39.9606 93.6207 39.8634 94.0074 39.6688 94.3236C39.4742 94.6398 39.2116 94.8781 38.8808 95.0387C38.5549 95.1992 38.1901 95.2794 37.7863 95.2794C37.3826 95.2794 37.0202 95.2016 36.6992 95.046C36.383 94.8854 36.1325 94.6471 35.9477 94.3309C35.7628 94.0099 35.6704 93.6207 35.6704 93.1635V90.1063H36.9181ZM43.4489 95.2284L42.3836 93.2948H42.0844V95.2284H40.8368V90.1063H42.9308C43.3345 90.1063 43.6775 90.1769 43.9596 90.3179C44.2466 90.459 44.4606 90.6536 44.6017 90.9016C44.7427 91.1449 44.8133 91.4172 44.8133 91.7188C44.8133 92.0593 44.716 92.3633 44.5214 92.6309C44.3317 92.8984 44.0496 93.0881 43.675 93.2L44.857 95.2284H43.4489ZM42.0844 92.412H42.8579C43.0865 92.412 43.2567 92.356 43.3686 92.2442C43.4853 92.1323 43.5437 91.9742 43.5437 91.7699C43.5437 91.5753 43.4853 91.4221 43.3686 91.3102C43.2567 91.1984 43.0865 91.1424 42.8579 91.1424H42.0844V92.412ZM48.9959 95.2794C48.6214 95.2794 48.2858 95.2186 47.9891 95.097C47.6923 94.9754 47.454 94.7954 47.274 94.5571C47.0989 94.3188 47.0065 94.0318 46.9968 93.6961H48.3247C48.3441 93.8858 48.4098 94.0318 48.5217 94.1339C48.6336 94.2312 48.7795 94.2798 48.9595 94.2798C49.1443 94.2798 49.2902 94.2385 49.3972 94.1558C49.5043 94.0682 49.5578 93.9491 49.5578 93.7983C49.5578 93.6718 49.514 93.5672 49.4264 93.4845C49.3437 93.4018 49.2392 93.3338 49.1127 93.2802C48.9911 93.2267 48.816 93.1659 48.5874 93.0978C48.2566 92.9957 47.9866 92.8935 47.7775 92.7914C47.5683 92.6892 47.3883 92.5385 47.2375 92.339C47.0867 92.1396 47.0113 91.8793 47.0113 91.5583C47.0113 91.0816 47.184 90.7095 47.5294 90.442C47.8747 90.1696 48.3247 90.0334 48.8792 90.0334C49.4435 90.0334 49.8983 90.1696 50.2436 90.442C50.589 90.7095 50.7738 91.084 50.7981 91.5656H49.4483C49.4386 91.4002 49.3778 91.2713 49.2659 91.1789C49.154 91.0816 49.0105 91.033 48.8354 91.033C48.6846 91.033 48.563 91.0743 48.4706 91.157C48.3782 91.2348 48.332 91.3491 48.332 91.4999C48.332 91.6653 48.4098 91.7942 48.5655 91.8866C48.7211 91.9791 48.9643 92.0788 49.2951 92.1858C49.6259 92.2977 49.8934 92.4047 50.0977 92.5068C50.3069 92.609 50.4868 92.7573 50.6376 92.9519C50.7884 93.1465 50.8638 93.397 50.8638 93.7034C50.8638 93.9953 50.7884 94.2604 50.6376 94.4987C50.4917 94.7371 50.2777 94.9268 49.9955 95.0678C49.7134 95.2089 49.3802 95.2794 48.9959 95.2794ZM52.8793 94.2652H54.5137V95.2284H51.6316V90.1063H52.8793V94.2652ZM57.5312 95.2794C57.0496 95.2794 56.607 95.1676 56.2032 94.9438C55.8044 94.7201 55.4858 94.4087 55.2474 94.0099C55.0139 93.6061 54.8972 93.1538 54.8972 92.6528C54.8972 92.1517 55.0139 91.7018 55.2474 91.3029C55.4858 90.9041 55.8044 90.5928 56.2032 90.369C56.607 90.1453 57.0496 90.0334 57.5312 90.0334C58.0127 90.0334 58.4529 90.1453 58.8518 90.369C59.2555 90.5928 59.5717 90.9041 59.8003 91.3029C60.0338 91.7018 60.1505 92.1517 60.1505 92.6528C60.1505 93.1538 60.0338 93.6061 59.8003 94.0099C59.5668 94.4087 59.2507 94.7201 58.8518 94.9438C58.4529 95.1676 58.0127 95.2794 57.5312 95.2794ZM57.5312 94.1412C57.9398 94.1412 58.2657 94.005 58.5089 93.7326C58.7569 93.4602 58.881 93.1003 58.881 92.6528C58.881 92.2004 58.7569 91.8404 58.5089 91.5729C58.2657 91.3005 57.9398 91.1643 57.5312 91.1643C57.1177 91.1643 56.7869 91.2981 56.5389 91.5656C56.2957 91.8331 56.174 92.1955 56.174 92.6528C56.174 93.1051 56.2957 93.4675 56.5389 93.7399C56.7869 94.0074 57.1177 94.1412 57.5312 94.1412ZM64.2448 91.7261C64.1523 91.5559 64.0186 91.427 63.8435 91.3394C63.6732 91.247 63.4713 91.2008 63.2379 91.2008C62.8341 91.2008 62.5107 91.3346 62.2675 91.6021C62.0242 91.8648 61.9026 92.2174 61.9026 92.6601C61.9026 93.1319 62.0291 93.5016 62.282 93.7691C62.5398 94.0318 62.8925 94.1631 63.34 94.1631C63.6465 94.1631 63.9043 94.0853 64.1134 93.9296C64.3274 93.774 64.4831 93.5502 64.5804 93.2584H62.9971V92.339H65.7113V93.4991C65.6189 93.8104 65.4608 94.0999 65.2371 94.3674C65.0182 94.6349 64.7385 94.8514 64.398 95.0168C64.0575 95.1822 63.6732 95.2648 63.2452 95.2648C62.7393 95.2648 62.2869 95.1554 61.888 94.9365C61.494 94.7128 61.1852 94.4039 60.9614 94.0099C60.7425 93.6159 60.6331 93.1659 60.6331 92.6601C60.6331 92.1542 60.7425 91.7042 60.9614 91.3102C61.1852 90.9114 61.494 90.6025 61.888 90.3836C62.282 90.1598 62.732 90.048 63.2379 90.048C63.8508 90.048 64.3664 90.1963 64.7847 90.493C65.2079 90.7898 65.4876 91.2008 65.6238 91.7261H64.2448ZM69.5909 94.3236H67.6793L67.3728 95.2284H66.0668L67.9201 90.1063H69.3647L71.218 95.2284H69.8974L69.5909 94.3236ZM69.2699 93.3605L68.6351 91.4853L68.0076 93.3605H69.2699ZM76.3641 95.2284H75.1165L73.0297 92.0691V95.2284H71.782V90.1063H73.0297L75.1165 93.2802V90.1063H76.3641V95.2284Z" fill="#414143"/>
<path d="M8.19626 84.8901C7.34848 84.8901 6.58877 84.7525 5.91715 84.4773C5.24552 84.202 4.70602 83.7946 4.29864 83.2551C3.90228 82.7156 3.69308 82.066 3.67106 81.3063H6.67685C6.72089 81.7357 6.86953 82.066 7.12277 82.2972C7.376 82.5174 7.70631 82.6275 8.11369 82.6275C8.53207 82.6275 8.86238 82.534 9.10461 82.3468C9.34683 82.1486 9.46794 81.8788 9.46794 81.5375C9.46794 81.2513 9.36885 81.0145 9.17067 80.8274C8.98349 80.6402 8.74677 80.4861 8.46051 80.3649C8.18525 80.2438 7.78888 80.1062 7.2714 79.9521C6.52271 79.7208 5.91164 79.4896 5.4382 79.2584C4.96476 79.0272 4.55738 78.6859 4.21607 78.2345C3.87475 77.783 3.70409 77.194 3.70409 76.4673C3.70409 75.3883 4.09495 74.546 4.87668 73.9405C5.65841 73.3239 6.67685 73.0156 7.93202 73.0156C9.2092 73.0156 10.2387 73.3239 11.0204 73.9405C11.8021 74.546 12.2205 75.3938 12.2755 76.4838H9.22021C9.19819 76.1095 9.06056 75.8177 8.80733 75.6085C8.55409 75.3883 8.22929 75.2782 7.83292 75.2782C7.49161 75.2782 7.21635 75.3718 7.00716 75.559C6.79796 75.7351 6.69337 75.9939 6.69337 76.3352C6.69337 76.7095 6.86953 77.0013 7.22186 77.2105C7.57418 77.4197 8.1247 77.6454 8.87339 77.8876C9.62209 78.1409 10.2276 78.3831 10.6901 78.6143C11.1635 78.8455 11.5709 79.1813 11.9122 79.6218C12.2535 80.0622 12.4242 80.6292 12.4242 81.3228C12.4242 81.9834 12.2535 82.5835 11.9122 83.123C11.5819 83.6625 11.0975 84.0919 10.4589 84.4112C9.82027 84.7305 9.06607 84.8901 8.19626 84.8901ZM24.2035 73.1808V84.7745H21.3794V80.0016H16.9863V84.7745H14.1622V73.1808H16.9863V77.7225H21.3794V73.1808H24.2035ZM31.7253 84.8901C30.6353 84.8901 29.6334 84.6369 28.7195 84.1304C27.8167 83.624 27.0955 82.9193 26.556 82.0165C26.0275 81.1026 25.7633 80.0787 25.7633 78.9446C25.7633 77.8106 26.0275 76.7921 26.556 75.8893C27.0955 74.9864 27.8167 74.2818 28.7195 73.7753C29.6334 73.2689 30.6353 73.0156 31.7253 73.0156C32.8153 73.0156 33.8118 73.2689 34.7146 73.7753C35.6284 74.2818 36.3441 74.9864 36.8616 75.8893C37.3901 76.7921 37.6543 77.8106 37.6543 78.9446C37.6543 80.0787 37.3901 81.1026 36.8616 82.0165C36.3331 82.9193 35.6174 83.624 34.7146 84.1304C33.8118 84.6369 32.8153 84.8901 31.7253 84.8901ZM31.7253 82.3138C32.6502 82.3138 33.3879 82.0055 33.9384 81.3889C34.4999 80.7723 34.7807 79.9576 34.7807 78.9446C34.7807 77.9207 34.4999 77.1059 33.9384 76.5004C33.3879 75.8838 32.6502 75.5755 31.7253 75.5755C30.7895 75.5755 30.0408 75.8783 29.4792 76.4838C28.9287 77.0894 28.6535 77.9097 28.6535 78.9446C28.6535 79.9686 28.9287 80.7888 29.4792 81.4054C30.0408 82.011 30.7895 82.3138 31.7253 82.3138ZM48.0612 76.9132C48.0612 77.5849 47.907 78.2014 47.5988 78.763C47.2905 79.3135 46.817 79.7594 46.1784 80.1007C45.5398 80.442 44.7471 80.6127 43.8002 80.6127H42.0496V84.7745H39.2255V73.1808H43.8002C44.7251 73.1808 45.5068 73.3404 46.1454 73.6597C46.784 73.979 47.2629 74.4194 47.5822 74.9809C47.9015 75.5425 48.0612 76.1866 48.0612 76.9132ZM43.5855 78.3666C44.125 78.3666 44.5269 78.24 44.7911 77.9867C45.0554 77.7335 45.1875 77.3757 45.1875 76.9132C45.1875 76.4508 45.0554 76.093 44.7911 75.8397C44.5269 75.5865 44.125 75.4599 43.5855 75.4599H42.0496V78.3666H43.5855Z" fill="#414143"/>
<path d="M55.8554 82.5945H59.5548V84.7745H53.0313V73.1808H55.8554V82.5945ZM66.3849 84.8901C65.2949 84.8901 64.293 84.6369 63.3792 84.1304C62.4763 83.624 61.7551 82.9193 61.2156 82.0165C60.6872 81.1026 60.4229 80.0787 60.4229 78.9446C60.4229 77.8106 60.6872 76.7921 61.2156 75.8893C61.7551 74.9864 62.4763 74.2818 63.3792 73.7753C64.293 73.2689 65.2949 73.0156 66.3849 73.0156C67.475 73.0156 68.4714 73.2689 69.3742 73.7753C70.2881 74.2818 71.0037 74.9864 71.5212 75.8893C72.0497 76.7921 72.3139 77.8106 72.3139 78.9446C72.3139 80.0787 72.0497 81.1026 71.5212 82.0165C70.9927 82.9193 70.2771 83.624 69.3742 84.1304C68.4714 84.6369 67.475 84.8901 66.3849 84.8901ZM66.3849 82.3138C67.3098 82.3138 68.0475 82.0055 68.598 81.3889C69.1595 80.7723 69.4403 79.9576 69.4403 78.9446C69.4403 77.9207 69.1595 77.1059 68.598 76.5004C68.0475 75.8838 67.3098 75.5755 66.3849 75.5755C65.4491 75.5755 64.7004 75.8783 64.1389 76.4838C63.5883 77.0894 63.3131 77.9097 63.3131 78.9446C63.3131 79.9686 63.5883 80.7888 64.1389 81.4054C64.7004 82.011 65.4491 82.3138 66.3849 82.3138ZM73.4062 78.9611C73.4062 77.8161 73.6539 76.7976 74.1493 75.9058C74.6448 75.003 75.3329 74.3038 76.2138 73.8084C77.1056 73.3019 78.113 73.0486 79.2361 73.0486C80.6123 73.0486 81.7904 73.412 82.7703 74.1387C83.7503 74.8653 84.4054 75.8563 84.7357 77.1114H81.6308C81.3996 76.627 81.0693 76.2581 80.6399 76.0049C80.2215 75.7517 79.7425 75.625 79.203 75.625C78.3332 75.625 77.6286 75.9278 77.0891 76.5334C76.5496 77.1389 76.2798 77.9482 76.2798 78.9611C76.2798 79.9741 76.5496 80.7833 77.0891 81.3889C77.6286 81.9945 78.3332 82.2972 79.203 82.2972C79.7425 82.2972 80.2215 82.1706 80.6399 81.9174C81.0693 81.6641 81.3996 81.2953 81.6308 80.8109H84.7357C84.4054 82.066 83.7503 83.0569 82.7703 83.7836C81.7904 84.4993 80.6123 84.8571 79.2361 84.8571C78.113 84.8571 77.1056 84.6094 76.2138 84.1139C75.3329 83.6075 74.6448 82.9083 74.1493 82.0165C73.6539 81.1246 73.4062 80.1062 73.4062 78.9611ZM93.6823 82.7266H89.3553L88.6617 84.7745H85.7054L89.9003 73.1808H93.1704L97.3653 84.7745H94.376L93.6823 82.7266ZM92.9557 80.5466L91.5188 76.3022L90.0985 80.5466H92.9557ZM101.466 82.5945H105.166V84.7745H98.642V73.1808H101.466V82.5945Z" fill="#54D4F1"/>
</svg>
